<mxfile host="65bd71144e">
    <diagram id="Zp4SAYyB1_y5TtXfTtSE" name="Page-1">
        <mxGraphModel dx="734" dy="452" grid="1" gridSize="10" guides="1" tooltips="1" connect="1" arrows="1" fold="1" page="1" pageScale="1" pageWidth="850" pageHeight="1100" math="0" shadow="0">
            <root>
                <mxCell id="0"/>
                <mxCell id="1" parent="0"/>
                <mxCell id="2" value="if()&lt;br&gt;for()&lt;br&gt;while()" style="rounded=0;whiteSpace=wrap;html=1;" parent="1" vertex="1">
                    <mxGeometry x="270" y="180" width="80" height="150" as="geometry"/>
                </mxCell>
                <mxCell id="3" value="" style="shape=flexArrow;endArrow=classic;html=1;startArrow=none;" parent="1" source="9" target="4" edge="1">
                    <mxGeometry width="50" height="50" relative="1" as="geometry">
                        <mxPoint x="360" y="240" as="sourcePoint"/>
                        <mxPoint x="490" y="230" as="targetPoint"/>
                    </mxGeometry>
                </mxCell>
                <mxCell id="4" value="" style="verticalLabelPosition=bottom;html=1;verticalAlign=top;align=center;strokeColor=none;fillColor=#00BEF2;shape=mxgraph.azure.cloud_services_configuration_file;pointerEvents=1;" parent="1" vertex="1">
                    <mxGeometry x="480" y="205" width="47.5" height="50" as="geometry"/>
                </mxCell>
                <mxCell id="5" value="" style="aspect=fixed;perimeter=ellipsePerimeter;html=1;align=center;shadow=0;dashed=0;spacingTop=3;image;image=img/lib/active_directory/generic_server.svg;" parent="1" vertex="1">
                    <mxGeometry x="489.75" y="370" width="28.000000000000004" height="50" as="geometry"/>
                </mxCell>
                <mxCell id="6" value="" style="shape=flexArrow;endArrow=classic;html=1;startArrow=none;" parent="1" source="12" target="5" edge="1">
                    <mxGeometry width="50" height="50" relative="1" as="geometry">
                        <mxPoint x="510" y="340" as="sourcePoint"/>
                        <mxPoint x="560" y="290" as="targetPoint"/>
                    </mxGeometry>
                </mxCell>
                <mxCell id="7" value="" style="image;html=1;image=img/lib/clip_art/computers/Database_Move_Stack_128x128.png" parent="1" vertex="1">
                    <mxGeometry x="70" y="260" width="80" height="80" as="geometry"/>
                </mxCell>
                <mxCell id="8" value="" style="shape=flexArrow;endArrow=classic;html=1;" parent="1" source="2" target="7" edge="1">
                    <mxGeometry width="50" height="50" relative="1" as="geometry">
                        <mxPoint x="510" y="340" as="sourcePoint"/>
                        <mxPoint x="560" y="290" as="targetPoint"/>
                    </mxGeometry>
                </mxCell>
                <mxCell id="9" value="" style="rounded=0;whiteSpace=wrap;html=1;fillColor=#d80073;fontColor=#ffffff;strokeColor=#A50040;" parent="1" vertex="1">
                    <mxGeometry x="425" y="205" width="10" height="60" as="geometry"/>
                </mxCell>
                <mxCell id="11" value="" style="shape=flexArrow;endArrow=none;html=1;" parent="1" target="9" edge="1">
                    <mxGeometry width="50" height="50" relative="1" as="geometry">
                        <mxPoint x="360" y="240" as="sourcePoint"/>
                        <mxPoint x="480" y="231.6521739130435" as="targetPoint"/>
                    </mxGeometry>
                </mxCell>
                <mxCell id="12" value="" style="rounded=0;whiteSpace=wrap;html=1;fillColor=#d80073;fontColor=#ffffff;strokeColor=#A50040;rotation=30;" parent="1" vertex="1">
                    <mxGeometry x="425" y="310" width="10" height="60" as="geometry"/>
                </mxCell>
                <mxCell id="13" value="" style="shape=flexArrow;endArrow=none;html=1;" parent="1" source="2" target="12" edge="1">
                    <mxGeometry width="50" height="50" relative="1" as="geometry">
                        <mxPoint x="350" y="283.8951671208191" as="sourcePoint"/>
                        <mxPoint x="490.77932145881186" y="385.59121763851635" as="targetPoint"/>
                    </mxGeometry>
                </mxCell>
                <mxCell id="14" value="" style="rounded=0;whiteSpace=wrap;html=1;fillColor=#d80073;fontColor=#ffffff;strokeColor=#A50040;rotation=-15;" parent="1" vertex="1">
                    <mxGeometry x="200" y="250" width="10" height="60" as="geometry"/>
                </mxCell>
                <mxCell id="15" value="interface" style="rounded=0;whiteSpace=wrap;html=1;fillColor=#60a917;fontColor=#ffffff;strokeColor=#2D7600;" parent="1" vertex="1">
                    <mxGeometry x="397.75" y="90" width="120" height="60" as="geometry"/>
                </mxCell>
            </root>
        </mxGraphModel>
    </diagram>
    <diagram id="PJ2FS1CFvhopfsoh_G4f" name="architectuur">
        <mxGraphModel dx="696" dy="639" grid="1" gridSize="10" guides="1" tooltips="1" connect="1" arrows="1" fold="1" page="1" pageScale="1" pageWidth="850" pageHeight="1100" math="0" shadow="0">
            <root>
                <mxCell id="aXhfYVVEWWPLeej2Uxmf-0"/>
                <mxCell id="aXhfYVVEWWPLeej2Uxmf-1" parent="aXhfYVVEWWPLeej2Uxmf-0"/>
                <mxCell id="aXhfYVVEWWPLeej2Uxmf-2" value="MicroSoft Intermediate Language" style="rounded=0;whiteSpace=wrap;html=1;fillColor=#008a00;fontColor=#ffffff;strokeColor=#005700;" vertex="1" parent="aXhfYVVEWWPLeej2Uxmf-1">
                    <mxGeometry x="20" y="220" width="250" height="60" as="geometry"/>
                </mxCell>
                <mxCell id="aXhfYVVEWWPLeej2Uxmf-3" value="C#" style="text;html=1;strokeColor=none;fillColor=none;align=center;verticalAlign=middle;whiteSpace=wrap;rounded=0;" vertex="1" parent="aXhfYVVEWWPLeej2Uxmf-1">
                    <mxGeometry x="70" y="110" width="60" height="30" as="geometry"/>
                </mxCell>
                <mxCell id="aXhfYVVEWWPLeej2Uxmf-4" value="F#" style="text;html=1;strokeColor=none;fillColor=none;align=center;verticalAlign=middle;whiteSpace=wrap;rounded=0;" vertex="1" parent="aXhfYVVEWWPLeej2Uxmf-1">
                    <mxGeometry x="120" y="110" width="60" height="30" as="geometry"/>
                </mxCell>
                <mxCell id="aXhfYVVEWWPLeej2Uxmf-5" value="VB" style="text;html=1;strokeColor=none;fillColor=none;align=center;verticalAlign=middle;whiteSpace=wrap;rounded=0;" vertex="1" parent="aXhfYVVEWWPLeej2Uxmf-1">
                    <mxGeometry x="180" y="110" width="60" height="30" as="geometry"/>
                </mxCell>
                <mxCell id="aXhfYVVEWWPLeej2Uxmf-6" value="" style="endArrow=classic;html=1;" edge="1" parent="aXhfYVVEWWPLeej2Uxmf-1" source="aXhfYVVEWWPLeej2Uxmf-3" target="aXhfYVVEWWPLeej2Uxmf-2">
                    <mxGeometry width="50" height="50" relative="1" as="geometry">
                        <mxPoint x="400" y="350" as="sourcePoint"/>
                        <mxPoint x="450" y="300" as="targetPoint"/>
                    </mxGeometry>
                </mxCell>
                <mxCell id="aXhfYVVEWWPLeej2Uxmf-7" value="compile" style="endArrow=classic;html=1;" edge="1" parent="aXhfYVVEWWPLeej2Uxmf-1" source="aXhfYVVEWWPLeej2Uxmf-4" target="aXhfYVVEWWPLeej2Uxmf-2">
                    <mxGeometry width="50" height="50" relative="1" as="geometry">
                        <mxPoint x="400" y="350" as="sourcePoint"/>
                        <mxPoint x="450" y="300" as="targetPoint"/>
                    </mxGeometry>
                </mxCell>
                <mxCell id="aXhfYVVEWWPLeej2Uxmf-8" value="" style="endArrow=classic;html=1;exitX=0.5;exitY=1;exitDx=0;exitDy=0;" edge="1" parent="aXhfYVVEWWPLeej2Uxmf-1" source="aXhfYVVEWWPLeej2Uxmf-5" target="aXhfYVVEWWPLeej2Uxmf-2">
                    <mxGeometry width="50" height="50" relative="1" as="geometry">
                        <mxPoint x="400" y="350" as="sourcePoint"/>
                        <mxPoint x="450" y="300" as="targetPoint"/>
                    </mxGeometry>
                </mxCell>
                <mxCell id="aXhfYVVEWWPLeej2Uxmf-9" value="CLR" style="rounded=0;whiteSpace=wrap;html=1;fillColor=#6a00ff;fontColor=#ffffff;strokeColor=#3700CC;" vertex="1" parent="aXhfYVVEWWPLeej2Uxmf-1">
                    <mxGeometry x="20" y="340" width="260" height="60" as="geometry"/>
                </mxCell>
                <mxCell id="aXhfYVVEWWPLeej2Uxmf-10" value="Win" style="rounded=0;whiteSpace=wrap;html=1;" vertex="1" parent="aXhfYVVEWWPLeej2Uxmf-1">
                    <mxGeometry x="20" y="460" width="70" height="60" as="geometry"/>
                </mxCell>
                <mxCell id="aXhfYVVEWWPLeej2Uxmf-11" value="MacOs" style="rounded=0;whiteSpace=wrap;html=1;" vertex="1" parent="aXhfYVVEWWPLeej2Uxmf-1">
                    <mxGeometry x="130" y="460" width="70" height="60" as="geometry"/>
                </mxCell>
                <mxCell id="aXhfYVVEWWPLeej2Uxmf-12" value="Linux" style="rounded=0;whiteSpace=wrap;html=1;" vertex="1" parent="aXhfYVVEWWPLeej2Uxmf-1">
                    <mxGeometry x="240" y="460" width="70" height="60" as="geometry"/>
                </mxCell>
                <mxCell id="aXhfYVVEWWPLeej2Uxmf-13" value="Moq Rhino Mocks NSubstiute" style="rounded=0;whiteSpace=wrap;html=1;" vertex="1" parent="aXhfYVVEWWPLeej2Uxmf-1">
                    <mxGeometry x="340" y="140" width="120" height="60" as="geometry"/>
                </mxCell>
                <mxCell id="aXhfYVVEWWPLeej2Uxmf-14" value="" style="shape=flexArrow;endArrow=classic;html=1;" edge="1" parent="aXhfYVVEWWPLeej2Uxmf-1">
                    <mxGeometry width="50" height="50" relative="1" as="geometry">
                        <mxPoint x="330" y="170" as="sourcePoint"/>
                        <mxPoint x="220" y="180" as="targetPoint"/>
                    </mxGeometry>
                </mxCell>
                <mxCell id="aXhfYVVEWWPLeej2Uxmf-15" value="TypeMock" style="rounded=0;whiteSpace=wrap;html=1;" vertex="1" parent="aXhfYVVEWWPLeej2Uxmf-1">
                    <mxGeometry x="390" y="330" width="120" height="60" as="geometry"/>
                </mxCell>
                <mxCell id="aXhfYVVEWWPLeej2Uxmf-16" value="" style="shape=flexArrow;endArrow=classic;html=1;" edge="1" parent="aXhfYVVEWWPLeej2Uxmf-1">
                    <mxGeometry width="50" height="50" relative="1" as="geometry">
                        <mxPoint x="380" y="360" as="sourcePoint"/>
                        <mxPoint x="290" y="370" as="targetPoint"/>
                    </mxGeometry>
                </mxCell>
            </root>
        </mxGraphModel>
    </diagram>
    <diagram id="PFV1_OpuYGnbwZ4jC4-v" name="middleware">
        <mxGraphModel dx="734" dy="452" grid="1" gridSize="10" guides="1" tooltips="1" connect="1" arrows="1" fold="1" page="1" pageScale="1" pageWidth="850" pageHeight="1100" math="0" shadow="0">
            <root>
                <mxCell id="05Flam6bCsuPO67lA3YR-0"/>
                <mxCell id="05Flam6bCsuPO67lA3YR-1" parent="05Flam6bCsuPO67lA3YR-0"/>
                <mxCell id="05Flam6bCsuPO67lA3YR-2" value="" style="shape=mxgraph.cisco.computers_and_peripherals.web_browser;html=1;pointerEvents=1;dashed=0;fillColor=#036897;strokeColor=#ffffff;strokeWidth=2;verticalLabelPosition=bottom;verticalAlign=top;align=center;outlineConnect=0;" parent="05Flam6bCsuPO67lA3YR-1" vertex="1">
                    <mxGeometry x="20" y="50" width="110" height="80" as="geometry"/>
                </mxCell>
                <mxCell id="05Flam6bCsuPO67lA3YR-4" value="ASP.NET Core" style="aspect=fixed;perimeter=ellipsePerimeter;html=1;align=center;shadow=0;dashed=0;spacingTop=3;image;image=img/lib/active_directory/generic_server.svg;" parent="05Flam6bCsuPO67lA3YR-1" vertex="1">
                    <mxGeometry x="340" y="40" width="44.8" height="80" as="geometry"/>
                </mxCell>
                <mxCell id="05Flam6bCsuPO67lA3YR-5" value="" style="shape=flexArrow;endArrow=classic;html=1;" parent="05Flam6bCsuPO67lA3YR-1" edge="1">
                    <mxGeometry width="50" height="50" relative="1" as="geometry">
                        <mxPoint x="150" y="60" as="sourcePoint"/>
                        <mxPoint x="330" y="60" as="targetPoint"/>
                    </mxGeometry>
                </mxCell>
                <mxCell id="05Flam6bCsuPO67lA3YR-6" value=".Use....." style="text;html=1;strokeColor=none;fillColor=none;align=center;verticalAlign=middle;whiteSpace=wrap;rounded=0;" parent="05Flam6bCsuPO67lA3YR-1" vertex="1">
                    <mxGeometry x="450" y="100" width="60" height="30" as="geometry"/>
                </mxCell>
                <mxCell id="05Flam6bCsuPO67lA3YR-7" value="UseStaticFiles" style="rounded=0;whiteSpace=wrap;html=1;" parent="05Flam6bCsuPO67lA3YR-1" vertex="1">
                    <mxGeometry x="50" y="190" width="120" height="60" as="geometry"/>
                </mxCell>
                <mxCell id="05Flam6bCsuPO67lA3YR-8" value="UseAuthentication" style="rounded=0;whiteSpace=wrap;html=1;" parent="05Flam6bCsuPO67lA3YR-1" vertex="1">
                    <mxGeometry x="180" y="260" width="120" height="60" as="geometry"/>
                </mxCell>
                <mxCell id="05Flam6bCsuPO67lA3YR-9" value="UseDeveloperExceptionPage" style="rounded=0;whiteSpace=wrap;html=1;" parent="05Flam6bCsuPO67lA3YR-1" vertex="1">
                    <mxGeometry x="300" y="330" width="200" height="60" as="geometry"/>
                </mxCell>
                <mxCell id="05Flam6bCsuPO67lA3YR-10" value="ExceptionLoggingMiddleware" style="rounded=0;whiteSpace=wrap;html=1;" parent="05Flam6bCsuPO67lA3YR-1" vertex="1">
                    <mxGeometry x="500" y="400" width="200" height="60" as="geometry"/>
                </mxCell>
                <mxCell id="05Flam6bCsuPO67lA3YR-11" value="next" style="shape=flexArrow;endArrow=classic;html=1;exitX=1;exitY=0.25;exitDx=0;exitDy=0;entryX=0.617;entryY=-0.017;entryDx=0;entryDy=0;entryPerimeter=0;" parent="05Flam6bCsuPO67lA3YR-1" source="05Flam6bCsuPO67lA3YR-7" target="05Flam6bCsuPO67lA3YR-8" edge="1">
                    <mxGeometry width="50" height="50" relative="1" as="geometry">
                        <mxPoint x="400" y="350" as="sourcePoint"/>
                        <mxPoint x="450" y="300" as="targetPoint"/>
                        <Array as="points">
                            <mxPoint x="250" y="205"/>
                        </Array>
                    </mxGeometry>
                </mxCell>
                <mxCell id="05Flam6bCsuPO67lA3YR-12" value="next" style="shape=flexArrow;endArrow=classic;html=1;exitX=1;exitY=0.25;exitDx=0;exitDy=0;entryX=0.617;entryY=-0.017;entryDx=0;entryDy=0;entryPerimeter=0;" parent="05Flam6bCsuPO67lA3YR-1" edge="1">
                    <mxGeometry width="50" height="50" relative="1" as="geometry">
                        <mxPoint x="300" y="276.02" as="sourcePoint"/>
                        <mxPoint x="384.03999999999996" y="330" as="targetPoint"/>
                        <Array as="points">
                            <mxPoint x="380" y="276.02"/>
                        </Array>
                    </mxGeometry>
                </mxCell>
                <mxCell id="05Flam6bCsuPO67lA3YR-13" value="next" style="shape=flexArrow;endArrow=classic;html=1;exitX=1;exitY=0.25;exitDx=0;exitDy=0;entryX=0.617;entryY=-0.017;entryDx=0;entryDy=0;entryPerimeter=0;" parent="05Flam6bCsuPO67lA3YR-1" edge="1">
                    <mxGeometry width="50" height="50" relative="1" as="geometry">
                        <mxPoint x="500" y="346.02" as="sourcePoint"/>
                        <mxPoint x="584.04" y="400" as="targetPoint"/>
                        <Array as="points">
                            <mxPoint x="580" y="346.02"/>
                        </Array>
                    </mxGeometry>
                </mxCell>
                <mxCell id="05Flam6bCsuPO67lA3YR-14" value="return" style="shape=flexArrow;endArrow=classic;html=1;exitX=0;exitY=0.75;exitDx=0;exitDy=0;" parent="05Flam6bCsuPO67lA3YR-1" source="05Flam6bCsuPO67lA3YR-10" target="05Flam6bCsuPO67lA3YR-9" edge="1">
                    <mxGeometry width="50" height="50" relative="1" as="geometry">
                        <mxPoint x="490" y="440" as="sourcePoint"/>
                        <mxPoint x="390" y="410" as="targetPoint"/>
                        <Array as="points">
                            <mxPoint x="390" y="440"/>
                        </Array>
                    </mxGeometry>
                </mxCell>
                <mxCell id="05Flam6bCsuPO67lA3YR-15" value="return" style="shape=flexArrow;endArrow=classic;html=1;exitX=0;exitY=0.75;exitDx=0;exitDy=0;" parent="05Flam6bCsuPO67lA3YR-1" edge="1">
                    <mxGeometry width="50" height="50" relative="1" as="geometry">
                        <mxPoint x="300" y="375" as="sourcePoint"/>
                        <mxPoint x="196.25" y="320" as="targetPoint"/>
                        <Array as="points">
                            <mxPoint x="190" y="370"/>
                        </Array>
                    </mxGeometry>
                </mxCell>
                <mxCell id="05Flam6bCsuPO67lA3YR-16" value="return" style="shape=flexArrow;endArrow=classic;html=1;exitX=0;exitY=0.75;exitDx=0;exitDy=0;" parent="05Flam6bCsuPO67lA3YR-1" edge="1">
                    <mxGeometry width="50" height="50" relative="1" as="geometry">
                        <mxPoint x="180" y="305" as="sourcePoint"/>
                        <mxPoint x="76.25" y="250" as="targetPoint"/>
                        <Array as="points">
                            <mxPoint x="70" y="300"/>
                        </Array>
                    </mxGeometry>
                </mxCell>
            </root>
        </mxGraphModel>
    </diagram>
    <diagram id="zDGnjVPg543mfznkYTs6" name="webassembly">
        <mxGraphModel dx="734" dy="452" grid="1" gridSize="10" guides="1" tooltips="1" connect="1" arrows="1" fold="1" page="1" pageScale="1" pageWidth="850" pageHeight="1100" math="0" shadow="0">
            <root>
                <mxCell id="5IqIaLEvHnD_ic7qLfgN-0"/>
                <mxCell id="5IqIaLEvHnD_ic7qLfgN-1" parent="5IqIaLEvHnD_ic7qLfgN-0"/>
                <mxCell id="5IqIaLEvHnD_ic7qLfgN-2" value="User" style="shape=umlActor;verticalLabelPosition=bottom;verticalAlign=top;html=1;outlineConnect=0;" parent="5IqIaLEvHnD_ic7qLfgN-1" vertex="1">
                    <mxGeometry x="20" y="20" width="30" height="60" as="geometry"/>
                </mxCell>
                <mxCell id="5IqIaLEvHnD_ic7qLfgN-3" value="" style="aspect=fixed;perimeter=ellipsePerimeter;html=1;align=center;shadow=0;dashed=0;spacingTop=3;image;image=img/lib/active_directory/generic_server.svg;" parent="5IqIaLEvHnD_ic7qLfgN-1" vertex="1">
                    <mxGeometry x="230" y="10" width="50.4" height="90" as="geometry"/>
                </mxCell>
                <mxCell id="5IqIaLEvHnD_ic7qLfgN-4" value="/beveiligdepagina.aspx" style="shape=flexArrow;endArrow=classic;html=1;entryX=-0.073;entryY=0.259;entryDx=0;entryDy=0;entryPerimeter=0;" parent="5IqIaLEvHnD_ic7qLfgN-1" target="5IqIaLEvHnD_ic7qLfgN-3" edge="1">
                    <mxGeometry width="50" height="50" relative="1" as="geometry">
                        <mxPoint x="60" y="30" as="sourcePoint"/>
                        <mxPoint x="330" y="130" as="targetPoint"/>
                    </mxGeometry>
                </mxCell>
                <mxCell id="5IqIaLEvHnD_ic7qLfgN-5" value="401 + redirect /login" style="shape=flexArrow;endArrow=classic;html=1;exitX=-0.026;exitY=0.622;exitDx=0;exitDy=0;exitPerimeter=0;" parent="5IqIaLEvHnD_ic7qLfgN-1" source="5IqIaLEvHnD_ic7qLfgN-3" edge="1">
                    <mxGeometry width="50" height="50" relative="1" as="geometry">
                        <mxPoint x="63.68" y="60" as="sourcePoint"/>
                        <mxPoint x="70" y="66" as="targetPoint"/>
                    </mxGeometry>
                </mxCell>
                <mxCell id="5IqIaLEvHnD_ic7qLfgN-6" value="POST login credentials" style="shape=flexArrow;endArrow=classic;html=1;entryX=-0.046;entryY=0.937;entryDx=0;entryDy=0;entryPerimeter=0;" parent="5IqIaLEvHnD_ic7qLfgN-1" target="5IqIaLEvHnD_ic7qLfgN-3" edge="1">
                    <mxGeometry width="50" height="50" relative="1" as="geometry">
                        <mxPoint x="70" y="90" as="sourcePoint"/>
                        <mxPoint x="320" y="130" as="targetPoint"/>
                    </mxGeometry>
                </mxCell>
                <mxCell id="5IqIaLEvHnD_ic7qLfgN-7" value="db met user + pass" style="shape=cylinder3;whiteSpace=wrap;html=1;boundedLbl=1;backgroundOutline=1;size=15;fillColor=#008a00;fontColor=#ffffff;strokeColor=#005700;" parent="5IqIaLEvHnD_ic7qLfgN-1" vertex="1">
                    <mxGeometry x="390" y="5" width="90" height="100" as="geometry"/>
                </mxCell>
                <mxCell id="5IqIaLEvHnD_ic7qLfgN-8" value="" style="endArrow=none;html=1;" parent="5IqIaLEvHnD_ic7qLfgN-1" source="5IqIaLEvHnD_ic7qLfgN-3" target="5IqIaLEvHnD_ic7qLfgN-7" edge="1">
                    <mxGeometry width="50" height="50" relative="1" as="geometry">
                        <mxPoint x="270" y="160" as="sourcePoint"/>
                        <mxPoint x="320" y="110" as="targetPoint"/>
                    </mxGeometry>
                </mxCell>
                <mxCell id="5IqIaLEvHnD_ic7qLfgN-9" value="/beveiligdepagina.aspx" style="shape=flexArrow;endArrow=classic;html=1;entryX=-0.073;entryY=0.259;entryDx=0;entryDy=0;entryPerimeter=0;" parent="5IqIaLEvHnD_ic7qLfgN-1" edge="1">
                    <mxGeometry width="50" height="50" relative="1" as="geometry">
                        <mxPoint x="70" y="120" as="sourcePoint"/>
                        <mxPoint x="236.32079999999996" y="123.31" as="targetPoint"/>
                    </mxGeometry>
                </mxCell>
                <mxCell id="5IqIaLEvHnD_ic7qLfgN-10" value="plaintext&lt;br&gt;hashing&lt;br&gt;salt&lt;br&gt;MD5&lt;br&gt;SHA1" style="text;html=1;strokeColor=none;fillColor=none;align=center;verticalAlign=middle;whiteSpace=wrap;rounded=0;" parent="5IqIaLEvHnD_ic7qLfgN-1" vertex="1">
                    <mxGeometry x="405" y="120" width="60" height="70" as="geometry"/>
                </mxCell>
                <mxCell id="5IqIaLEvHnD_ic7qLfgN-11" value="User" style="shape=umlActor;verticalLabelPosition=bottom;verticalAlign=top;html=1;outlineConnect=0;" parent="5IqIaLEvHnD_ic7qLfgN-1" vertex="1">
                    <mxGeometry x="30" y="270" width="30" height="60" as="geometry"/>
                </mxCell>
                <mxCell id="5IqIaLEvHnD_ic7qLfgN-12" value="" style="aspect=fixed;perimeter=ellipsePerimeter;html=1;align=center;shadow=0;dashed=0;spacingTop=3;image;image=img/lib/active_directory/generic_server.svg;" parent="5IqIaLEvHnD_ic7qLfgN-1" vertex="1">
                    <mxGeometry x="350" y="270" width="50.4" height="90" as="geometry"/>
                </mxCell>
                <mxCell id="5IqIaLEvHnD_ic7qLfgN-13" value="db" style="shape=cylinder3;whiteSpace=wrap;html=1;boundedLbl=1;backgroundOutline=1;size=15;fillColor=#008a00;fontColor=#ffffff;strokeColor=#005700;" parent="5IqIaLEvHnD_ic7qLfgN-1" vertex="1">
                    <mxGeometry x="500" y="260" width="90" height="100" as="geometry"/>
                </mxCell>
                <mxCell id="5IqIaLEvHnD_ic7qLfgN-15" value="/beveiligdepagina.aspx" style="shape=flexArrow;endArrow=classic;html=1;entryX=-0.073;entryY=0.259;entryDx=0;entryDy=0;entryPerimeter=0;" parent="5IqIaLEvHnD_ic7qLfgN-1" edge="1">
                    <mxGeometry width="50" height="50" relative="1" as="geometry">
                        <mxPoint x="173.68" y="290" as="sourcePoint"/>
                        <mxPoint x="340.00079999999997" y="293.31" as="targetPoint"/>
                    </mxGeometry>
                </mxCell>
                <mxCell id="5IqIaLEvHnD_ic7qLfgN-16" value="" style="shape=flexArrow;endArrow=classic;html=1;" parent="5IqIaLEvHnD_ic7qLfgN-1" edge="1">
                    <mxGeometry width="50" height="50" relative="1" as="geometry">
                        <mxPoint x="330" y="320" as="sourcePoint"/>
                        <mxPoint x="180" y="320" as="targetPoint"/>
                    </mxGeometry>
                </mxCell>
                <mxCell id="5IqIaLEvHnD_ic7qLfgN-17" value="" style="aspect=fixed;perimeter=ellipsePerimeter;html=1;align=center;shadow=0;dashed=0;spacingTop=3;image;image=img/lib/active_directory/generic_server.svg;" parent="5IqIaLEvHnD_ic7qLfgN-1" vertex="1">
                    <mxGeometry x="130" y="520" width="50.4" height="90" as="geometry"/>
                </mxCell>
                <mxCell id="5IqIaLEvHnD_ic7qLfgN-18" value="Identity Provider" style="text;html=1;strokeColor=none;fillColor=none;align=center;verticalAlign=middle;whiteSpace=wrap;rounded=0;" parent="5IqIaLEvHnD_ic7qLfgN-1" vertex="1">
                    <mxGeometry x="190" y="540" width="70" height="50" as="geometry"/>
                </mxCell>
                <mxCell id="5IqIaLEvHnD_ic7qLfgN-19" value="" style="shape=flexArrow;endArrow=classic;html=1;" parent="5IqIaLEvHnD_ic7qLfgN-1" edge="1">
                    <mxGeometry width="50" height="50" relative="1" as="geometry">
                        <mxPoint x="130" y="360" as="sourcePoint"/>
                        <mxPoint x="140" y="510" as="targetPoint"/>
                    </mxGeometry>
                </mxCell>
                <mxCell id="5IqIaLEvHnD_ic7qLfgN-20" value="identity &lt;br&gt;token ?token=...." style="shape=flexArrow;endArrow=classic;html=1;" parent="5IqIaLEvHnD_ic7qLfgN-1" edge="1">
                    <mxGeometry width="50" height="50" relative="1" as="geometry">
                        <mxPoint x="170" y="510" as="sourcePoint"/>
                        <mxPoint x="160" y="360" as="targetPoint"/>
                    </mxGeometry>
                </mxCell>
                <mxCell id="5IqIaLEvHnD_ic7qLfgN-21" value="access token" style="shape=flexArrow;endArrow=classic;html=1;" parent="5IqIaLEvHnD_ic7qLfgN-1" edge="1">
                    <mxGeometry width="50" height="50" relative="1" as="geometry">
                        <mxPoint x="180" y="350" as="sourcePoint"/>
                        <mxPoint x="340" y="350" as="targetPoint"/>
                    </mxGeometry>
                </mxCell>
                <mxCell id="5IqIaLEvHnD_ic7qLfgN-22" value="" style="endArrow=none;dashed=1;html=1;entryX=0.026;entryY=1.048;entryDx=0;entryDy=0;entryPerimeter=0;" parent="5IqIaLEvHnD_ic7qLfgN-1" target="5IqIaLEvHnD_ic7qLfgN-12" edge="1">
                    <mxGeometry width="50" height="50" relative="1" as="geometry">
                        <mxPoint x="190" y="530" as="sourcePoint"/>
                        <mxPoint x="350" y="390" as="targetPoint"/>
                    </mxGeometry>
                </mxCell>
                <mxCell id="5IqIaLEvHnD_ic7qLfgN-25" value="OAuth: Oath + Auth" style="text;html=1;strokeColor=none;fillColor=none;align=center;verticalAlign=middle;whiteSpace=wrap;rounded=0;" parent="5IqIaLEvHnD_ic7qLfgN-1" vertex="1">
                    <mxGeometry x="250" y="420" width="230" height="30" as="geometry"/>
                </mxCell>
                <mxCell id="5IqIaLEvHnD_ic7qLfgN-26" value="" style="rounded=0;whiteSpace=wrap;html=1;fillColor=#6a00ff;fontColor=#ffffff;strokeColor=#3700CC;" parent="5IqIaLEvHnD_ic7qLfgN-1" vertex="1">
                    <mxGeometry x="90" y="270" width="80" height="80" as="geometry"/>
                </mxCell>
                <mxCell id="5IqIaLEvHnD_ic7qLfgN-28" value="Open ID Connect&lt;br&gt;- name&lt;br&gt;- email&lt;br&gt;adres" style="text;html=1;strokeColor=none;fillColor=none;align=center;verticalAlign=middle;whiteSpace=wrap;rounded=0;" parent="5IqIaLEvHnD_ic7qLfgN-1" vertex="1">
                    <mxGeometry x="230" y="450" width="230" height="80" as="geometry"/>
                </mxCell>
                <mxCell id="5IqIaLEvHnD_ic7qLfgN-29" value="User" style="shape=umlActor;verticalLabelPosition=bottom;verticalAlign=top;html=1;outlineConnect=0;" parent="5IqIaLEvHnD_ic7qLfgN-1" vertex="1">
                    <mxGeometry x="40.2" y="660" width="30" height="60" as="geometry"/>
                </mxCell>
                <mxCell id="5IqIaLEvHnD_ic7qLfgN-30" value="" style="aspect=fixed;perimeter=ellipsePerimeter;html=1;align=center;shadow=0;dashed=0;spacingTop=3;image;image=img/lib/active_directory/generic_server.svg;" parent="5IqIaLEvHnD_ic7qLfgN-1" vertex="1">
                    <mxGeometry x="539.6" y="660" width="50.4" height="90" as="geometry"/>
                </mxCell>
                <mxCell id="5IqIaLEvHnD_ic7qLfgN-31" value="/beveiligdepagina.aspx" style="shape=flexArrow;endArrow=classic;html=1;entryX=-0.073;entryY=0.259;entryDx=0;entryDy=0;entryPerimeter=0;" parent="5IqIaLEvHnD_ic7qLfgN-1" edge="1">
                    <mxGeometry width="50" height="50" relative="1" as="geometry">
                        <mxPoint x="363.2800000000001" y="680" as="sourcePoint"/>
                        <mxPoint x="529.6008" y="683.31" as="targetPoint"/>
                    </mxGeometry>
                </mxCell>
                <mxCell id="5IqIaLEvHnD_ic7qLfgN-32" value="" style="shape=flexArrow;endArrow=classic;html=1;" parent="5IqIaLEvHnD_ic7qLfgN-1" edge="1">
                    <mxGeometry width="50" height="50" relative="1" as="geometry">
                        <mxPoint x="519.6" y="710" as="sourcePoint"/>
                        <mxPoint x="369.6" y="710" as="targetPoint"/>
                    </mxGeometry>
                </mxCell>
                <mxCell id="5IqIaLEvHnD_ic7qLfgN-33" value="" style="aspect=fixed;perimeter=ellipsePerimeter;html=1;align=center;shadow=0;dashed=0;spacingTop=3;image;image=img/lib/active_directory/generic_server.svg;" parent="5IqIaLEvHnD_ic7qLfgN-1" vertex="1">
                    <mxGeometry x="270" y="940" width="50.4" height="90" as="geometry"/>
                </mxCell>
                <mxCell id="5IqIaLEvHnD_ic7qLfgN-34" value="Identity Provider" style="text;html=1;strokeColor=none;fillColor=none;align=center;verticalAlign=middle;whiteSpace=wrap;rounded=0;" parent="5IqIaLEvHnD_ic7qLfgN-1" vertex="1">
                    <mxGeometry x="330" y="960" width="70" height="50" as="geometry"/>
                </mxCell>
                <mxCell id="5IqIaLEvHnD_ic7qLfgN-35" value="" style="shape=flexArrow;endArrow=classic;html=1;" parent="5IqIaLEvHnD_ic7qLfgN-1" edge="1">
                    <mxGeometry width="50" height="50" relative="1" as="geometry">
                        <mxPoint x="270" y="780" as="sourcePoint"/>
                        <mxPoint x="280" y="930" as="targetPoint"/>
                    </mxGeometry>
                </mxCell>
                <mxCell id="5IqIaLEvHnD_ic7qLfgN-36" value="identity &lt;br&gt;token ?token=...." style="shape=flexArrow;endArrow=classic;html=1;" parent="5IqIaLEvHnD_ic7qLfgN-1" edge="1">
                    <mxGeometry width="50" height="50" relative="1" as="geometry">
                        <mxPoint x="310" y="930" as="sourcePoint"/>
                        <mxPoint x="300" y="780" as="targetPoint"/>
                    </mxGeometry>
                </mxCell>
                <mxCell id="5IqIaLEvHnD_ic7qLfgN-37" value="access token" style="shape=flexArrow;endArrow=classic;html=1;" parent="5IqIaLEvHnD_ic7qLfgN-1" edge="1">
                    <mxGeometry width="50" height="50" relative="1" as="geometry">
                        <mxPoint x="320" y="770" as="sourcePoint"/>
                        <mxPoint x="480" y="770" as="targetPoint"/>
                    </mxGeometry>
                </mxCell>
                <mxCell id="5IqIaLEvHnD_ic7qLfgN-38" value="" style="endArrow=none;dashed=1;html=1;entryX=0.026;entryY=1.048;entryDx=0;entryDy=0;entryPerimeter=0;" parent="5IqIaLEvHnD_ic7qLfgN-1" edge="1">
                    <mxGeometry width="50" height="50" relative="1" as="geometry">
                        <mxPoint x="330" y="950" as="sourcePoint"/>
                        <mxPoint x="491.31040000000013" y="784.3199999999999" as="targetPoint"/>
                    </mxGeometry>
                </mxCell>
                <mxCell id="5IqIaLEvHnD_ic7qLfgN-39" value="" style="rounded=0;whiteSpace=wrap;html=1;fillColor=#6a00ff;fontColor=#ffffff;strokeColor=#3700CC;" parent="5IqIaLEvHnD_ic7qLfgN-1" vertex="1">
                    <mxGeometry x="100.2" y="660" width="80" height="80" as="geometry"/>
                </mxCell>
                <mxCell id="5IqIaLEvHnD_ic7qLfgN-40" value="Open ID Connect&lt;br&gt;- name&lt;br&gt;- email&lt;br&gt;adres" style="text;html=1;strokeColor=none;fillColor=none;align=center;verticalAlign=middle;whiteSpace=wrap;rounded=0;" parent="5IqIaLEvHnD_ic7qLfgN-1" vertex="1">
                    <mxGeometry x="350" y="870" width="230" height="80" as="geometry"/>
                </mxCell>
                <mxCell id="5IqIaLEvHnD_ic7qLfgN-43" value="" style="aspect=fixed;perimeter=ellipsePerimeter;html=1;align=center;shadow=0;dashed=0;spacingTop=3;image;image=img/lib/active_directory/generic_server.svg;" parent="5IqIaLEvHnD_ic7qLfgN-1" vertex="1">
                    <mxGeometry x="290" y="655" width="50.4" height="90" as="geometry"/>
                </mxCell>
                <mxCell id="5IqIaLEvHnD_ic7qLfgN-44" value="cookie auth" style="shape=flexArrow;endArrow=classic;startArrow=classic;html=1;entryX=0;entryY=0.5;entryDx=0;entryDy=0;" parent="5IqIaLEvHnD_ic7qLfgN-1" target="5IqIaLEvHnD_ic7qLfgN-43" edge="1">
                    <mxGeometry width="100" height="100" relative="1" as="geometry">
                        <mxPoint x="190" y="700" as="sourcePoint"/>
                        <mxPoint x="340" y="650" as="targetPoint"/>
                    </mxGeometry>
                </mxCell>
                <mxCell id="5IqIaLEvHnD_ic7qLfgN-45" value="Backend for Frontend" style="text;html=1;strokeColor=none;fillColor=none;align=center;verticalAlign=middle;whiteSpace=wrap;rounded=0;" parent="5IqIaLEvHnD_ic7qLfgN-1" vertex="1">
                    <mxGeometry x="265.2" y="620" width="100" height="30" as="geometry"/>
                </mxCell>
                <mxCell id="5IqIaLEvHnD_ic7qLfgN-46" value="Azure AD&lt;br&gt;Firebase&lt;br&gt;Microsoft&lt;br&gt;DigiD&lt;br&gt;Amazon&lt;br&gt;Google&lt;br&gt;facebook&lt;br&gt;GitHub&lt;br&gt;Twitter&lt;br&gt;VeCoZo" style="text;html=1;strokeColor=none;fillColor=none;align=center;verticalAlign=middle;whiteSpace=wrap;rounded=0;" parent="5IqIaLEvHnD_ic7qLfgN-1" vertex="1">
                    <mxGeometry x="20" y="458" width="60" height="162" as="geometry"/>
                </mxCell>
                <mxCell id="lgtCse_8mN4gOqbN_zR5-0" value="claims-based authorization" style="text;html=1;strokeColor=none;fillColor=none;align=center;verticalAlign=middle;whiteSpace=wrap;rounded=0;" vertex="1" parent="5IqIaLEvHnD_ic7qLfgN-1">
                    <mxGeometry x="360" y="490" width="240" height="30" as="geometry"/>
                </mxCell>
            </root>
        </mxGraphModel>
    </diagram>
    <diagram id="FUbjjmDUwWiox7dylBXI" name="websockets">
        <mxGraphModel dx="734" dy="452" grid="1" gridSize="10" guides="1" tooltips="1" connect="1" arrows="1" fold="1" page="1" pageScale="1" pageWidth="850" pageHeight="1100" math="0" shadow="0">
            <root>
                <mxCell id="ad54JR_WcorEgRvinLFP-0"/>
                <mxCell id="ad54JR_WcorEgRvinLFP-1" parent="ad54JR_WcorEgRvinLFP-0"/>
                <mxCell id="ad54JR_WcorEgRvinLFP-2" value="Actor" style="shape=umlActor;verticalLabelPosition=bottom;verticalAlign=top;html=1;outlineConnect=0;" vertex="1" parent="ad54JR_WcorEgRvinLFP-1">
                    <mxGeometry x="60" y="70" width="30" height="60" as="geometry"/>
                </mxCell>
                <mxCell id="ad54JR_WcorEgRvinLFP-3" value="" style="aspect=fixed;perimeter=ellipsePerimeter;html=1;align=center;shadow=0;dashed=0;spacingTop=3;image;image=img/lib/active_directory/generic_server.svg;" vertex="1" parent="ad54JR_WcorEgRvinLFP-1">
                    <mxGeometry x="370" y="70" width="45" height="80.35" as="geometry"/>
                </mxCell>
                <mxCell id="ad54JR_WcorEgRvinLFP-4" value="HTTP" style="endArrow=classic;html=1;entryX=0;entryY=0.25;entryDx=0;entryDy=0;" edge="1" parent="ad54JR_WcorEgRvinLFP-1" target="ad54JR_WcorEgRvinLFP-3">
                    <mxGeometry width="50" height="50" relative="1" as="geometry">
                        <mxPoint x="100" y="80" as="sourcePoint"/>
                        <mxPoint x="400" y="210" as="targetPoint"/>
                    </mxGeometry>
                </mxCell>
                <mxCell id="ad54JR_WcorEgRvinLFP-5" value="HTTP" style="endArrow=classic;html=1;entryX=0;entryY=0.25;entryDx=0;entryDy=0;" edge="1" parent="ad54JR_WcorEgRvinLFP-1">
                    <mxGeometry width="50" height="50" relative="1" as="geometry">
                        <mxPoint x="97.55" y="94.03" as="sourcePoint"/>
                        <mxPoint x="369.99919679099213" y="105.97699708272015" as="targetPoint"/>
                    </mxGeometry>
                </mxCell>
                <mxCell id="ad54JR_WcorEgRvinLFP-6" value="HTTP" style="endArrow=classic;html=1;entryX=0;entryY=0.25;entryDx=0;entryDy=0;" edge="1" parent="ad54JR_WcorEgRvinLFP-1">
                    <mxGeometry width="50" height="50" relative="1" as="geometry">
                        <mxPoint x="97.55" y="110" as="sourcePoint"/>
                        <mxPoint x="369.99919679099213" y="121.94699708272015" as="targetPoint"/>
                    </mxGeometry>
                </mxCell>
                <mxCell id="ad54JR_WcorEgRvinLFP-7" value="HTTP" style="endArrow=classic;html=1;entryX=0;entryY=0.25;entryDx=0;entryDy=0;" edge="1" parent="ad54JR_WcorEgRvinLFP-1">
                    <mxGeometry width="50" height="50" relative="1" as="geometry">
                        <mxPoint x="97.55" y="130" as="sourcePoint"/>
                        <mxPoint x="369.99919679099213" y="141.94699708272015" as="targetPoint"/>
                    </mxGeometry>
                </mxCell>
                <mxCell id="ad54JR_WcorEgRvinLFP-8" value="Polling" style="text;html=1;strokeColor=none;fillColor=none;align=center;verticalAlign=middle;whiteSpace=wrap;rounded=0;" vertex="1" parent="ad54JR_WcorEgRvinLFP-1">
                    <mxGeometry x="470" y="85" width="140" height="30" as="geometry"/>
                </mxCell>
                <mxCell id="ad54JR_WcorEgRvinLFP-9" value="Actor" style="shape=umlActor;verticalLabelPosition=bottom;verticalAlign=top;html=1;outlineConnect=0;" vertex="1" parent="ad54JR_WcorEgRvinLFP-1">
                    <mxGeometry x="60" y="180" width="30" height="60" as="geometry"/>
                </mxCell>
                <mxCell id="ad54JR_WcorEgRvinLFP-10" value="" style="aspect=fixed;perimeter=ellipsePerimeter;html=1;align=center;shadow=0;dashed=0;spacingTop=3;image;image=img/lib/active_directory/generic_server.svg;" vertex="1" parent="ad54JR_WcorEgRvinLFP-1">
                    <mxGeometry x="370" y="180" width="45" height="80.35" as="geometry"/>
                </mxCell>
                <mxCell id="ad54JR_WcorEgRvinLFP-11" value="HTTP" style="endArrow=classic;html=1;entryX=0;entryY=0.25;entryDx=0;entryDy=0;" edge="1" parent="ad54JR_WcorEgRvinLFP-1" target="ad54JR_WcorEgRvinLFP-10">
                    <mxGeometry width="50" height="50" relative="1" as="geometry">
                        <mxPoint x="100" y="190" as="sourcePoint"/>
                        <mxPoint x="400" y="320" as="targetPoint"/>
                    </mxGeometry>
                </mxCell>
                <mxCell id="ad54JR_WcorEgRvinLFP-13" value="HTTP" style="endArrow=classic;html=1;entryX=0;entryY=0.25;entryDx=0;entryDy=0;" edge="1" parent="ad54JR_WcorEgRvinLFP-1">
                    <mxGeometry width="50" height="50" relative="1" as="geometry">
                        <mxPoint x="97.54999999999995" y="220" as="sourcePoint"/>
                        <mxPoint x="369.9991967909921" y="231.94699708272015" as="targetPoint"/>
                    </mxGeometry>
                </mxCell>
                <mxCell id="ad54JR_WcorEgRvinLFP-14" value="HTTP" style="endArrow=classic;html=1;entryX=0;entryY=0.25;entryDx=0;entryDy=0;" edge="1" parent="ad54JR_WcorEgRvinLFP-1">
                    <mxGeometry width="50" height="50" relative="1" as="geometry">
                        <mxPoint x="97.54999999999995" y="240" as="sourcePoint"/>
                        <mxPoint x="369.9991967909921" y="251.94699708272015" as="targetPoint"/>
                    </mxGeometry>
                </mxCell>
                <mxCell id="ad54JR_WcorEgRvinLFP-15" value="Long polling" style="text;html=1;strokeColor=none;fillColor=none;align=center;verticalAlign=middle;whiteSpace=wrap;rounded=0;" vertex="1" parent="ad54JR_WcorEgRvinLFP-1">
                    <mxGeometry x="460" y="190" width="140" height="30" as="geometry"/>
                </mxCell>
                <mxCell id="ad54JR_WcorEgRvinLFP-16" value="Actor" style="shape=umlActor;verticalLabelPosition=bottom;verticalAlign=top;html=1;outlineConnect=0;" vertex="1" parent="ad54JR_WcorEgRvinLFP-1">
                    <mxGeometry x="37" y="570" width="30" height="60" as="geometry"/>
                </mxCell>
                <mxCell id="ad54JR_WcorEgRvinLFP-17" value="" style="aspect=fixed;perimeter=ellipsePerimeter;html=1;align=center;shadow=0;dashed=0;spacingTop=3;image;image=img/lib/active_directory/generic_server.svg;" vertex="1" parent="ad54JR_WcorEgRvinLFP-1">
                    <mxGeometry x="380" y="580" width="45" height="80.35" as="geometry"/>
                </mxCell>
                <mxCell id="ad54JR_WcorEgRvinLFP-20" value="WebSocket&amp;nbsp; TCP" style="endArrow=classic;html=1;" edge="1" parent="ad54JR_WcorEgRvinLFP-1">
                    <mxGeometry width="50" height="50" relative="1" as="geometry">
                        <mxPoint x="74.54999999999995" y="594.03" as="sourcePoint"/>
                        <mxPoint x="367" y="594" as="targetPoint"/>
                    </mxGeometry>
                </mxCell>
                <mxCell id="ad54JR_WcorEgRvinLFP-21" value="" style="endArrow=classic;html=1;" edge="1" parent="ad54JR_WcorEgRvinLFP-1">
                    <mxGeometry width="50" height="50" relative="1" as="geometry">
                        <mxPoint x="367" y="610" as="sourcePoint"/>
                        <mxPoint x="87" y="610" as="targetPoint"/>
                    </mxGeometry>
                </mxCell>
                <mxCell id="ad54JR_WcorEgRvinLFP-22" value="" style="endArrow=classic;html=1;" edge="1" parent="ad54JR_WcorEgRvinLFP-1">
                    <mxGeometry width="50" height="50" relative="1" as="geometry">
                        <mxPoint x="367" y="630" as="sourcePoint"/>
                        <mxPoint x="87" y="630" as="targetPoint"/>
                    </mxGeometry>
                </mxCell>
                <mxCell id="ad54JR_WcorEgRvinLFP-23" value="" style="endArrow=classic;html=1;" edge="1" parent="ad54JR_WcorEgRvinLFP-1">
                    <mxGeometry width="50" height="50" relative="1" as="geometry">
                        <mxPoint x="367" y="650" as="sourcePoint"/>
                        <mxPoint x="87" y="650" as="targetPoint"/>
                    </mxGeometry>
                </mxCell>
                <mxCell id="ad54JR_WcorEgRvinLFP-24" value="Actor" style="shape=umlActor;verticalLabelPosition=bottom;verticalAlign=top;html=1;outlineConnect=0;" vertex="1" parent="ad54JR_WcorEgRvinLFP-1">
                    <mxGeometry x="500" y="310" width="30" height="60" as="geometry"/>
                </mxCell>
                <mxCell id="ad54JR_WcorEgRvinLFP-25" value="" style="aspect=fixed;perimeter=ellipsePerimeter;html=1;align=center;shadow=0;dashed=0;spacingTop=3;image;image=img/lib/active_directory/generic_server.svg;" vertex="1" parent="ad54JR_WcorEgRvinLFP-1">
                    <mxGeometry x="843" y="320" width="45" height="80.35" as="geometry"/>
                </mxCell>
                <mxCell id="ad54JR_WcorEgRvinLFP-26" value="WebTransport: UDP" style="endArrow=classic;html=1;" edge="1" parent="ad54JR_WcorEgRvinLFP-1">
                    <mxGeometry width="50" height="50" relative="1" as="geometry">
                        <mxPoint x="537.55" y="334.03" as="sourcePoint"/>
                        <mxPoint x="830" y="334" as="targetPoint"/>
                    </mxGeometry>
                </mxCell>
                <mxCell id="ad54JR_WcorEgRvinLFP-27" value="" style="endArrow=classic;html=1;" edge="1" parent="ad54JR_WcorEgRvinLFP-1">
                    <mxGeometry width="50" height="50" relative="1" as="geometry">
                        <mxPoint x="830" y="350" as="sourcePoint"/>
                        <mxPoint x="550" y="350" as="targetPoint"/>
                    </mxGeometry>
                </mxCell>
                <mxCell id="ad54JR_WcorEgRvinLFP-28" value="" style="endArrow=classic;html=1;" edge="1" parent="ad54JR_WcorEgRvinLFP-1">
                    <mxGeometry width="50" height="50" relative="1" as="geometry">
                        <mxPoint x="830" y="370" as="sourcePoint"/>
                        <mxPoint x="550" y="370" as="targetPoint"/>
                    </mxGeometry>
                </mxCell>
                <mxCell id="ad54JR_WcorEgRvinLFP-29" value="" style="endArrow=classic;html=1;" edge="1" parent="ad54JR_WcorEgRvinLFP-1">
                    <mxGeometry width="50" height="50" relative="1" as="geometry">
                        <mxPoint x="830" y="390" as="sourcePoint"/>
                        <mxPoint x="550" y="390" as="targetPoint"/>
                    </mxGeometry>
                </mxCell>
                <mxCell id="APRQ84jSjuDtdrIsXv73-0" value="Actor" style="shape=umlActor;verticalLabelPosition=bottom;verticalAlign=top;html=1;outlineConnect=0;" vertex="1" parent="ad54JR_WcorEgRvinLFP-1">
                    <mxGeometry x="370" y="390" width="30" height="60" as="geometry"/>
                </mxCell>
                <mxCell id="APRQ84jSjuDtdrIsXv73-1" value="" style="endArrow=classic;html=1;" edge="1" parent="ad54JR_WcorEgRvinLFP-1">
                    <mxGeometry width="50" height="50" relative="1" as="geometry">
                        <mxPoint x="390" y="480" as="sourcePoint"/>
                        <mxPoint x="390" y="570" as="targetPoint"/>
                    </mxGeometry>
                </mxCell>
                <mxCell id="APRQ84jSjuDtdrIsXv73-2" value="Actor" style="shape=umlActor;verticalLabelPosition=bottom;verticalAlign=top;html=1;outlineConnect=0;" vertex="1" parent="ad54JR_WcorEgRvinLFP-1">
                    <mxGeometry x="570" y="600.35" width="30" height="60" as="geometry"/>
                </mxCell>
                <mxCell id="APRQ84jSjuDtdrIsXv73-4" value="" style="endArrow=classic;html=1;" edge="1" parent="ad54JR_WcorEgRvinLFP-1">
                    <mxGeometry width="50" height="50" relative="1" as="geometry">
                        <mxPoint x="550" y="630" as="sourcePoint"/>
                        <mxPoint x="440" y="620" as="targetPoint"/>
                        <Array as="points">
                            <mxPoint x="490" y="620"/>
                        </Array>
                    </mxGeometry>
                </mxCell>
                <mxCell id="APRQ84jSjuDtdrIsXv73-5" value="SignalR&lt;br&gt;- WebSocket&lt;br&gt;- makkelijker&lt;br&gt;- model binding&lt;br&gt;- Hubs - connecties groeperen&lt;br&gt;- reconnecten" style="text;html=1;strokeColor=none;fillColor=none;align=left;verticalAlign=top;whiteSpace=wrap;rounded=0;" vertex="1" parent="ad54JR_WcorEgRvinLFP-1">
                    <mxGeometry x="60" y="710" width="290" height="110" as="geometry"/>
                </mxCell>
            </root>
        </mxGraphModel>
    </diagram>
</mxfile>